<svg width="14.000000" height="17.000000" viewBox="0 0 14 17" fill="none" xmlns="http://www.w3.org/2000/svg" xmlns:xlink="http://www.w3.org/1999/xlink">
	<desc>
			Created with Pixso.
	</desc>
	<defs/>
	<path d="M11.3509 1.54285C10.1335 0.547852 8.58957 0 6.99933 0C5.40912 0 3.86349 0.547852 2.64774 1.54285C1.05911 2.84192 0.122192 4.68884 0.0106812 6.74219C-0.0992737 8.76794 0.644836 10.7531 2.05023 12.187L6.63269 16.8627C6.81274 17.0447 7.12503 17.0464 7.30508 16.8643L11.9532 12.1836C13.3554 10.7529 14.0979 8.76941 13.9896 6.74207C13.8765 4.68872 12.9412 2.8418 11.3509 1.54285L11.3509 1.54285ZM3.87628 7.1377C3.87628 8.89514 5.27686 10.3243 6.99933 10.3243C8.72177 10.3243 10.124 8.89526 10.1224 7.1377C10.1224 5.38025 8.7218 3.95117 6.99933 3.95117C5.27689 3.95117 3.87628 5.38025 3.87628 7.1377Z" clip-rule="evenodd" fill="#FFFFFF" fill-opacity="1.000000" fill-rule="evenodd"/>
	<path d="M6.9993 5.58411C6.15958 5.58411 5.4776 6.27991 5.4776 7.13672C5.4776 7.99353 6.15958 8.68945 6.9993 8.68945C7.83905 8.68945 8.52103 7.99353 8.52103 7.13672C8.52103 6.27991 7.83905 5.58411 6.9993 5.58411Z" fill="#FFFFFF" fill-opacity="1.000000" fill-rule="nonzero"/>
</svg>
